<svg xmlns="http://www.w3.org/2000/svg" xmlns:xlink="http://www.w3.org/1999/xlink" width="594" height="187" viewBox="0 0 594 187">
  <defs>
    <clipPath id="clip-path">
      <rect id="Rectangle_227" data-name="Rectangle 227" width="594" height="187" rx="16" transform="translate(994 655)" fill="#f2f2f5"/>
    </clipPath>
  </defs>
  <g id="Mask_Group_21" data-name="Mask Group 21" transform="translate(-994 -655)" clip-path="url(#clip-path)">
    <path id="Path_525" data-name="Path 525" d="M40.915-19.668a30.375,30.375,0,0,1,21.754,8.619q9.03,8.619,9.03,23.4a34.607,34.607,0,0,1-2.052,12.108A116.613,116.613,0,0,1,63.49,37.8L34.348,89.923H3.564L22.855,38.206Q9.31,29.586,9.31,12.347q0-13.955,9.03-22.985T40.915-19.668Zm98.157,0a30.375,30.375,0,0,1,21.754,8.619q9.03,8.619,9.03,23.4A34.607,34.607,0,0,1,167.8,24.456a116.61,116.61,0,0,1-6.157,13.34L132.5,89.923H101.721l19.291-51.717q-13.545-8.619-13.545-25.858,0-13.955,9.03-22.985T139.072-19.668Z" transform="translate(979.194 658.577)" opacity="0.085"/>
  </g>
</svg>
