<svg xmlns="http://www.w3.org/2000/svg" xmlns:xlink="http://www.w3.org/1999/xlink" width="500" zoomAndPan="magnify" viewBox="0 0 375 374.999991" height="500" preserveAspectRatio="xMidYMid meet" version="1.0"><defs><clipPath id="b4d203b86c"><path d="M 131.316406 113 L 243.816406 113 L 243.816406 213 L 131.316406 213 Z M 131.316406 113 " clip-rule="nonzero"/></clipPath><clipPath id="3369fd8451"><path d="M 131.316406 162 L 243.816406 162 L 243.816406 262 L 131.316406 262 Z M 131.316406 162 " clip-rule="nonzero"/></clipPath></defs><g clip-path="url(#b4d203b86c)"><path fill="#ffffff" d="M 136.964844 175.234375 L 176.890625 208.90625 C 177.628906 209.519531 178.417969 210.066406 179.25 210.542969 C 180.085938 211.019531 180.957031 211.421875 181.859375 211.746094 C 182.765625 212.070312 183.6875 212.316406 184.636719 212.484375 C 185.582031 212.648438 186.535156 212.730469 187.496094 212.730469 C 188.460938 212.730469 189.414062 212.648438 190.359375 212.484375 C 191.304688 212.316406 192.230469 212.070312 193.136719 211.746094 C 194.039062 211.421875 194.910156 211.019531 195.746094 210.542969 C 196.578125 210.066406 197.367188 209.519531 198.105469 208.90625 L 209.804688 199.042969 C 210.023438 198.859375 210.21875 198.65625 210.398438 198.433594 C 210.574219 198.214844 210.726562 197.976562 210.859375 197.722656 C 210.988281 197.472656 211.09375 197.210938 211.171875 196.9375 C 211.25 196.664062 211.300781 196.386719 211.328125 196.105469 C 211.351562 195.824219 211.347656 195.539062 211.316406 195.257812 C 211.285156 194.976562 211.226562 194.699219 211.140625 194.429688 C 211.054688 194.160156 210.941406 193.898438 210.804688 193.652344 C 210.667969 193.402344 210.507812 193.171875 210.324219 192.953125 C 210.140625 192.738281 209.941406 192.539062 209.71875 192.363281 C 209.496094 192.1875 209.257812 192.03125 209.007812 191.902344 C 208.753906 191.773438 208.492188 191.667969 208.222656 191.589844 C 207.949219 191.507812 207.671875 191.457031 207.386719 191.433594 C 207.105469 191.410156 206.824219 191.414062 206.542969 191.445312 C 206.257812 191.476562 205.984375 191.535156 205.714844 191.621094 C 205.441406 191.707031 205.183594 191.820312 204.933594 191.957031 C 204.6875 192.09375 204.453125 192.253906 204.238281 192.4375 L 192.539062 202.300781 C 192.1875 202.59375 191.8125 202.851562 191.414062 203.078125 C 191.019531 203.304688 190.605469 203.496094 190.175781 203.652344 C 189.746094 203.804688 189.308594 203.921875 188.859375 204 C 188.40625 204.078125 187.953125 204.121094 187.496094 204.121094 C 187.042969 204.121094 186.589844 204.078125 186.136719 204 C 185.6875 203.921875 185.25 203.804688 184.820312 203.652344 C 184.390625 203.496094 183.976562 203.304688 183.582031 203.078125 C 183.183594 202.851562 182.808594 202.59375 182.457031 202.300781 L 142.53125 168.628906 C 142.132812 168.304688 141.777344 167.9375 141.460938 167.53125 C 141.140625 167.125 140.875 166.691406 140.652344 166.226562 C 140.433594 165.761719 140.265625 165.277344 140.152344 164.773438 C 140.039062 164.273438 139.984375 163.765625 139.984375 163.25 C 139.984375 162.734375 140.039062 162.226562 140.152344 161.722656 C 140.265625 161.222656 140.433594 160.738281 140.652344 160.273438 C 140.875 159.808594 141.140625 159.371094 141.460938 158.964844 C 141.777344 158.5625 142.132812 158.195312 142.53125 157.867188 L 182.457031 124.195312 C 182.808594 123.90625 183.183594 123.644531 183.582031 123.417969 C 183.976562 123.191406 184.390625 123.003906 184.820312 122.847656 C 185.25 122.691406 185.6875 122.574219 186.136719 122.496094 C 186.589844 122.417969 187.042969 122.378906 187.496094 122.378906 C 187.953125 122.378906 188.40625 122.417969 188.859375 122.496094 C 189.308594 122.574219 189.746094 122.691406 190.175781 122.847656 C 190.605469 123.003906 191.019531 123.191406 191.414062 123.417969 C 191.8125 123.644531 192.1875 123.90625 192.539062 124.195312 L 232.464844 157.867188 C 232.863281 158.195312 233.21875 158.5625 233.535156 158.964844 C 233.851562 159.371094 234.121094 159.808594 234.34375 160.273438 C 234.5625 160.738281 234.730469 161.222656 234.84375 161.722656 C 234.957031 162.226562 235.011719 162.734375 235.011719 163.25 C 235.011719 163.765625 234.957031 164.273438 234.84375 164.773438 C 234.730469 165.277344 234.5625 165.761719 234.34375 166.226562 C 234.121094 166.691406 233.851562 167.125 233.535156 167.53125 C 233.21875 167.9375 232.863281 168.304688 232.464844 168.628906 L 223.855469 175.890625 C 223.644531 176.074219 223.453125 176.277344 223.277344 176.5 C 223.105469 176.71875 222.957031 176.957031 222.832031 177.207031 C 222.703125 177.457031 222.601562 177.71875 222.527344 177.988281 C 222.453125 178.261719 222.402344 178.535156 222.382812 178.816406 C 222.359375 179.097656 222.363281 179.375 222.398438 179.65625 C 222.429688 179.933594 222.488281 180.207031 222.574219 180.476562 C 222.660156 180.742188 222.773438 181 222.910156 181.246094 C 223.046875 181.492188 223.203125 181.722656 223.386719 181.9375 C 223.566406 182.152344 223.765625 182.347656 223.984375 182.523438 C 224.207031 182.699219 224.441406 182.851562 224.6875 182.980469 C 224.9375 183.109375 225.199219 183.214844 225.46875 183.296875 C 225.738281 183.375 226.011719 183.425781 226.292969 183.453125 C 226.570312 183.476562 226.851562 183.476562 227.128906 183.449219 C 227.410156 183.417969 227.683594 183.363281 227.953125 183.28125 C 228.222656 183.199219 228.480469 183.089844 228.726562 182.957031 C 228.976562 182.824219 229.207031 182.671875 229.425781 182.492188 L 238.03125 175.234375 C 238.472656 174.867188 238.886719 174.480469 239.285156 174.070312 C 239.679688 173.660156 240.050781 173.230469 240.398438 172.777344 C 240.746094 172.328125 241.070312 171.859375 241.367188 171.371094 C 241.664062 170.882812 241.933594 170.382812 242.175781 169.867188 C 242.417969 169.351562 242.632812 168.824219 242.816406 168.28125 C 243 167.742188 243.152344 167.195312 243.277344 166.640625 C 243.402344 166.082031 243.496094 165.519531 243.558594 164.953125 C 243.617188 164.386719 243.648438 163.820312 243.648438 163.25 C 243.648438 162.679688 243.617188 162.109375 243.558594 161.542969 C 243.496094 160.976562 243.402344 160.414062 243.277344 159.859375 C 243.152344 159.304688 243 158.753906 242.816406 158.214844 C 242.632812 157.675781 242.417969 157.148438 242.175781 156.632812 C 241.933594 156.117188 241.664062 155.613281 241.367188 155.128906 C 241.070312 154.640625 240.746094 154.171875 240.398438 153.71875 C 240.050781 153.269531 239.679688 152.839844 239.285156 152.429688 C 238.886719 152.019531 238.472656 151.628906 238.03125 151.265625 L 198.105469 117.59375 C 197.367188 116.980469 196.578125 116.433594 195.746094 115.957031 C 194.910156 115.480469 194.039062 115.078125 193.136719 114.753906 C 192.234375 114.425781 191.308594 114.179688 190.359375 114.015625 C 189.414062 113.851562 188.460938 113.765625 187.496094 113.765625 C 186.535156 113.765625 185.582031 113.851562 184.636719 114.015625 C 183.6875 114.179688 182.761719 114.425781 181.859375 114.753906 C 180.953125 115.078125 180.085938 115.480469 179.25 115.957031 C 178.417969 116.433594 177.628906 116.980469 176.890625 117.59375 L 136.964844 151.265625 C 136.523438 151.628906 136.109375 152.019531 135.710938 152.429688 C 135.316406 152.839844 134.945312 153.269531 134.597656 153.71875 C 134.246094 154.171875 133.925781 154.640625 133.628906 155.128906 C 133.332031 155.613281 133.0625 156.117188 132.820312 156.632812 C 132.578125 157.148438 132.363281 157.675781 132.179688 158.214844 C 131.996094 158.753906 131.84375 159.304688 131.71875 159.859375 C 131.59375 160.414062 131.5 160.976562 131.4375 161.542969 C 131.375 162.109375 131.34375 162.679688 131.34375 163.25 C 131.34375 163.820312 131.375 164.386719 131.4375 164.953125 C 131.5 165.519531 131.59375 166.082031 131.71875 166.640625 C 131.84375 167.195312 131.996094 167.742188 132.179688 168.28125 C 132.363281 168.824219 132.578125 169.351562 132.820312 169.867188 C 133.0625 170.382812 133.332031 170.882812 133.628906 171.371094 C 133.925781 171.859375 134.246094 172.328125 134.597656 172.777344 C 134.945312 173.230469 135.316406 173.660156 135.710938 174.070312 C 136.109375 174.480469 136.523438 174.867188 136.964844 175.234375 Z M 136.964844 175.234375 " fill-opacity="1" fill-rule="nonzero"/></g><g clip-path="url(#3369fd8451)"><path fill="#ffffff" d="M 238.03125 199.738281 L 198.105469 166.0625 C 197.367188 165.449219 196.578125 164.90625 195.746094 164.429688 C 194.910156 163.953125 194.039062 163.550781 193.136719 163.222656 C 192.230469 162.898438 191.308594 162.652344 190.359375 162.488281 C 189.414062 162.320312 188.460938 162.238281 187.496094 162.238281 C 186.535156 162.238281 185.582031 162.320312 184.636719 162.488281 C 183.6875 162.652344 182.761719 162.898438 181.859375 163.222656 C 180.957031 163.550781 180.085938 163.953125 179.25 164.429688 C 178.417969 164.90625 177.628906 165.449219 176.890625 166.0625 L 165.1875 175.929688 C 164.972656 176.113281 164.777344 176.316406 164.597656 176.535156 C 164.421875 176.757812 164.269531 176.996094 164.136719 177.246094 C 164.007812 177.5 163.902344 177.761719 163.824219 178.035156 C 163.746094 178.308594 163.695312 178.585938 163.667969 178.867188 C 163.644531 179.148438 163.648438 179.433594 163.679688 179.714844 C 163.714844 179.996094 163.773438 180.273438 163.859375 180.542969 C 163.945312 180.8125 164.054688 181.074219 164.191406 181.320312 C 164.328125 181.570312 164.488281 181.800781 164.671875 182.019531 C 164.855469 182.234375 165.058594 182.433594 165.28125 182.609375 C 165.5 182.785156 165.738281 182.941406 165.988281 183.070312 C 166.242188 183.199219 166.503906 183.304688 166.777344 183.382812 C 167.050781 183.460938 167.328125 183.515625 167.609375 183.539062 C 167.894531 183.5625 168.175781 183.558594 168.457031 183.527344 C 168.738281 183.496094 169.015625 183.4375 169.285156 183.351562 C 169.554688 183.265625 169.816406 183.152344 170.0625 183.015625 C 170.3125 182.878906 170.542969 182.71875 170.761719 182.535156 L 182.457031 172.667969 C 182.808594 172.378906 183.183594 172.121094 183.582031 171.894531 C 183.976562 171.664062 184.390625 171.476562 184.820312 171.320312 C 185.25 171.164062 185.6875 171.046875 186.136719 170.96875 C 186.589844 170.890625 187.042969 170.851562 187.496094 170.851562 C 187.953125 170.851562 188.40625 170.890625 188.859375 170.96875 C 189.308594 171.046875 189.746094 171.164062 190.175781 171.320312 C 190.605469 171.476562 191.019531 171.664062 191.414062 171.894531 C 191.8125 172.121094 192.1875 172.378906 192.539062 172.667969 L 232.464844 206.339844 C 232.863281 206.667969 233.21875 207.035156 233.535156 207.4375 C 233.851562 207.84375 234.121094 208.28125 234.34375 208.746094 C 234.5625 209.210938 234.730469 209.695312 234.84375 210.195312 C 234.957031 210.699219 235.011719 211.207031 235.011719 211.722656 C 235.011719 212.238281 234.957031 212.746094 234.84375 213.246094 C 234.730469 213.75 234.5625 214.234375 234.34375 214.699219 C 234.121094 215.164062 233.851562 215.597656 233.535156 216.003906 C 233.21875 216.410156 232.863281 216.777344 232.464844 217.101562 L 192.539062 250.773438 C 192.1875 251.066406 191.8125 251.324219 191.414062 251.550781 C 191.019531 251.777344 190.605469 251.96875 190.175781 252.125 C 189.746094 252.277344 189.308594 252.394531 188.859375 252.472656 C 188.40625 252.554688 187.953125 252.59375 187.496094 252.59375 C 187.042969 252.59375 186.589844 252.554688 186.136719 252.472656 C 185.6875 252.394531 185.25 252.277344 184.820312 252.125 C 184.390625 251.96875 183.976562 251.777344 183.582031 251.550781 C 183.183594 251.324219 182.808594 251.066406 182.457031 250.773438 L 142.53125 217.101562 C 142.132812 216.777344 141.777344 216.410156 141.460938 216.003906 C 141.140625 215.597656 140.875 215.164062 140.652344 214.699219 C 140.433594 214.234375 140.265625 213.75 140.152344 213.246094 C 140.039062 212.746094 139.984375 212.238281 139.984375 211.722656 C 139.984375 211.207031 140.039062 210.699219 140.152344 210.195312 C 140.265625 209.695312 140.433594 209.210938 140.652344 208.746094 C 140.875 208.28125 141.140625 207.84375 141.460938 207.4375 C 141.777344 207.035156 142.132812 206.667969 142.53125 206.339844 L 151.140625 199.082031 C 151.351562 198.898438 151.542969 198.695312 151.71875 198.472656 C 151.890625 198.25 152.039062 198.015625 152.164062 197.765625 C 152.292969 197.511719 152.394531 197.25 152.46875 196.980469 C 152.542969 196.710938 152.59375 196.433594 152.613281 196.15625 C 152.636719 195.875 152.632812 195.59375 152.597656 195.316406 C 152.566406 195.035156 152.507812 194.761719 152.421875 194.496094 C 152.332031 194.226562 152.222656 193.972656 152.085938 193.726562 C 151.949219 193.480469 151.792969 193.25 151.609375 193.035156 C 151.429688 192.820312 151.230469 192.625 151.007812 192.449219 C 150.789062 192.273438 150.554688 192.121094 150.308594 191.988281 C 150.058594 191.859375 149.796875 191.753906 149.527344 191.675781 C 149.257812 191.597656 148.984375 191.542969 148.703125 191.519531 C 148.425781 191.492188 148.144531 191.496094 147.863281 191.523438 C 147.585938 191.550781 147.3125 191.609375 147.042969 191.691406 C 146.773438 191.773438 146.515625 191.878906 146.269531 192.011719 C 146.019531 192.144531 145.789062 192.300781 145.570312 192.480469 L 136.964844 199.738281 C 136.523438 200.101562 136.109375 200.492188 135.710938 200.902344 C 135.316406 201.3125 134.945312 201.742188 134.597656 202.195312 C 134.246094 202.644531 133.925781 203.113281 133.628906 203.601562 C 133.332031 204.085938 133.0625 204.589844 132.820312 205.105469 C 132.578125 205.621094 132.363281 206.148438 132.179688 206.6875 C 131.996094 207.226562 131.84375 207.777344 131.71875 208.332031 C 131.59375 208.886719 131.5 209.449219 131.4375 210.015625 C 131.375 210.582031 131.34375 211.152344 131.34375 211.722656 C 131.34375 212.292969 131.375 212.859375 131.4375 213.425781 C 131.5 213.992188 131.59375 214.554688 131.71875 215.113281 C 131.84375 215.667969 131.996094 216.214844 132.179688 216.757812 C 132.363281 217.296875 132.578125 217.824219 132.820312 218.339844 C 133.0625 218.855469 133.332031 219.355469 133.628906 219.84375 C 133.925781 220.332031 134.246094 220.800781 134.597656 221.25 C 134.945312 221.703125 135.316406 222.132812 135.710938 222.542969 C 136.109375 222.953125 136.523438 223.339844 136.964844 223.707031 L 176.890625 257.378906 C 177.628906 257.992188 178.417969 258.535156 179.25 259.011719 C 180.085938 259.488281 180.953125 259.890625 181.859375 260.21875 C 182.761719 260.542969 183.6875 260.789062 184.636719 260.957031 C 185.582031 261.121094 186.535156 261.203125 187.496094 261.203125 C 188.460938 261.203125 189.414062 261.121094 190.359375 260.957031 C 191.308594 260.789062 192.234375 260.542969 193.136719 260.21875 C 194.039062 259.890625 194.910156 259.488281 195.746094 259.011719 C 196.578125 258.535156 197.367188 257.992188 198.105469 257.378906 L 238.03125 223.707031 C 238.472656 223.339844 238.886719 222.953125 239.285156 222.542969 C 239.679688 222.132812 240.050781 221.703125 240.398438 221.25 C 240.746094 220.800781 241.070312 220.332031 241.367188 219.84375 C 241.664062 219.355469 241.933594 218.855469 242.175781 218.339844 C 242.417969 217.824219 242.632812 217.296875 242.816406 216.757812 C 243 216.214844 243.152344 215.667969 243.277344 215.113281 C 243.402344 214.554688 243.496094 213.992188 243.558594 213.425781 C 243.617188 212.859375 243.648438 212.292969 243.648438 211.722656 C 243.648438 211.152344 243.617188 210.582031 243.558594 210.015625 C 243.496094 209.449219 243.402344 208.886719 243.277344 208.332031 C 243.152344 207.777344 243 207.226562 242.816406 206.6875 C 242.632812 206.148438 242.417969 205.621094 242.175781 205.105469 C 241.933594 204.589844 241.664062 204.085938 241.367188 203.601562 C 241.070312 203.113281 240.746094 202.644531 240.398438 202.195312 C 240.050781 201.742188 239.679688 201.3125 239.285156 200.902344 C 238.886719 200.492188 238.472656 200.101562 238.03125 199.738281 Z M 238.03125 199.738281 " fill-opacity="1" fill-rule="nonzero"/></g></svg>