<svg xmlns="http://www.w3.org/2000/svg" xmlns:xlink="http://www.w3.org/1999/xlink" width="500" zoomAndPan="magnify" viewBox="0 0 375 374.999991" height="500" preserveAspectRatio="xMidYMid meet" version="1.0"><defs><g/></defs><g fill="#000000" fill-opacity="1"><g transform="translate(15.980936, 198.749987)"><g><path d="M 2.546875 -21.921875 L 7.0625 -21.921875 L 7.0625 -4.3125 L 16.4375 -4.3125 L 16.4375 0 L 2.546875 0 Z M 2.546875 -21.921875 "/></g></g></g><g fill="#000000" fill-opacity="1"><g transform="translate(32.330634, 198.749987)"><g><path d="M 1.09375 -7.453125 C 1.09375 -8.566406 1.300781 -9.597656 1.71875 -10.546875 C 2.144531 -11.503906 2.734375 -12.335938 3.484375 -13.046875 C 4.242188 -13.753906 5.117188 -14.300781 6.109375 -14.6875 C 7.097656 -15.082031 8.160156 -15.28125 9.296875 -15.28125 C 10.804688 -15.28125 12.171875 -14.941406 13.390625 -14.265625 C 14.617188 -13.597656 15.597656 -12.679688 16.328125 -11.515625 C 17.054688 -10.347656 17.421875 -9.019531 17.421875 -7.53125 C 17.421875 -6.414062 17.207031 -5.375 16.78125 -4.40625 C 16.363281 -3.445312 15.773438 -2.613281 15.015625 -1.90625 C 14.265625 -1.195312 13.394531 -0.644531 12.40625 -0.25 C 11.414062 0.144531 10.359375 0.34375 9.234375 0.34375 C 7.722656 0.34375 6.351562 0.00390625 5.125 -0.671875 C 3.894531 -1.347656 2.914062 -2.269531 2.1875 -3.4375 C 1.457031 -4.613281 1.09375 -5.953125 1.09375 -7.453125 Z M 5.578125 -7.5 C 5.578125 -6.757812 5.742188 -6.097656 6.078125 -5.515625 C 6.410156 -4.929688 6.859375 -4.476562 7.421875 -4.15625 C 7.984375 -3.832031 8.597656 -3.671875 9.265625 -3.671875 C 10.296875 -3.671875 11.164062 -4.023438 11.875 -4.734375 C 12.582031 -5.441406 12.9375 -6.363281 12.9375 -7.5 C 12.9375 -8.25 12.765625 -8.90625 12.421875 -9.46875 C 12.085938 -10.039062 11.644531 -10.488281 11.09375 -10.8125 C 10.550781 -11.144531 9.929688 -11.3125 9.234375 -11.3125 C 8.210938 -11.3125 7.347656 -10.957031 6.640625 -10.25 C 5.929688 -9.539062 5.578125 -8.625 5.578125 -7.5 Z M 5.578125 -7.5 "/></g></g></g><g fill="#000000" fill-opacity="1"><g transform="translate(50.276107, 198.749987)"><g><path d="M 4.984375 1.140625 C 5.296875 1.773438 5.753906 2.351562 6.359375 2.875 C 6.972656 3.40625 7.835938 3.671875 8.953125 3.671875 C 10.035156 3.671875 10.929688 3.382812 11.640625 2.8125 C 12.359375 2.238281 12.71875 1.359375 12.71875 0.171875 L 12.71875 -2.09375 L 12.65625 -2.09375 C 12.207031 -1.519531 11.71875 -1.09375 11.1875 -0.8125 C 10.65625 -0.53125 10.132812 -0.34375 9.625 -0.25 C 9.125 -0.15625 8.695312 -0.109375 8.34375 -0.109375 C 6.90625 -0.109375 5.644531 -0.441406 4.5625 -1.109375 C 3.476562 -1.785156 2.632812 -2.6875 2.03125 -3.8125 C 1.425781 -4.945312 1.125 -6.210938 1.125 -7.609375 C 1.125 -8.566406 1.285156 -9.492188 1.609375 -10.390625 C 1.929688 -11.285156 2.398438 -12.09375 3.015625 -12.8125 C 3.640625 -13.53125 4.382812 -14.101562 5.25 -14.53125 C 6.113281 -14.957031 7.085938 -15.171875 8.171875 -15.171875 C 8.492188 -15.171875 8.910156 -15.128906 9.421875 -15.046875 C 9.929688 -14.960938 10.476562 -14.773438 11.0625 -14.484375 C 11.65625 -14.203125 12.207031 -13.75 12.71875 -13.125 L 12.765625 -13.125 L 12.765625 -14.953125 L 17.046875 -14.953125 L 17.046875 0.0625 C 17.046875 1.644531 16.691406 2.988281 15.984375 4.09375 C 15.273438 5.207031 14.3125 6.046875 13.09375 6.609375 C 11.882812 7.179688 10.515625 7.46875 8.984375 7.46875 C 7.523438 7.46875 6.300781 7.269531 5.3125 6.875 C 4.332031 6.488281 3.53125 5.96875 2.90625 5.3125 C 2.289062 4.664062 1.796875 3.957031 1.421875 3.1875 Z M 12.828125 -7.609375 C 12.828125 -8.710938 12.472656 -9.597656 11.765625 -10.265625 C 11.066406 -10.941406 10.207031 -11.28125 9.1875 -11.28125 C 8.175781 -11.28125 7.316406 -10.941406 6.609375 -10.265625 C 5.898438 -9.597656 5.546875 -8.710938 5.546875 -7.609375 C 5.546875 -6.492188 5.894531 -5.597656 6.59375 -4.921875 C 7.289062 -4.253906 8.15625 -3.921875 9.1875 -3.921875 C 10.195312 -3.921875 11.054688 -4.253906 11.765625 -4.921875 C 12.472656 -5.597656 12.828125 -6.492188 12.828125 -7.609375 Z M 12.828125 -7.609375 "/></g></g></g><g fill="#000000" fill-opacity="1"><g transform="translate(68.809498, 198.749987)"><g><path d="M 1.09375 -7.453125 C 1.09375 -8.566406 1.300781 -9.597656 1.71875 -10.546875 C 2.144531 -11.503906 2.734375 -12.335938 3.484375 -13.046875 C 4.242188 -13.753906 5.117188 -14.300781 6.109375 -14.6875 C 7.097656 -15.082031 8.160156 -15.28125 9.296875 -15.28125 C 10.804688 -15.28125 12.171875 -14.941406 13.390625 -14.265625 C 14.617188 -13.597656 15.597656 -12.679688 16.328125 -11.515625 C 17.054688 -10.347656 17.421875 -9.019531 17.421875 -7.53125 C 17.421875 -6.414062 17.207031 -5.375 16.78125 -4.40625 C 16.363281 -3.445312 15.773438 -2.613281 15.015625 -1.90625 C 14.265625 -1.195312 13.394531 -0.644531 12.40625 -0.25 C 11.414062 0.144531 10.359375 0.34375 9.234375 0.34375 C 7.722656 0.34375 6.351562 0.00390625 5.125 -0.671875 C 3.894531 -1.347656 2.914062 -2.269531 2.1875 -3.4375 C 1.457031 -4.613281 1.09375 -5.953125 1.09375 -7.453125 Z M 5.578125 -7.5 C 5.578125 -6.757812 5.742188 -6.097656 6.078125 -5.515625 C 6.410156 -4.929688 6.859375 -4.476562 7.421875 -4.15625 C 7.984375 -3.832031 8.597656 -3.671875 9.265625 -3.671875 C 10.296875 -3.671875 11.164062 -4.023438 11.875 -4.734375 C 12.582031 -5.441406 12.9375 -6.363281 12.9375 -7.5 C 12.9375 -8.25 12.765625 -8.90625 12.421875 -9.46875 C 12.085938 -10.039062 11.644531 -10.488281 11.09375 -10.8125 C 10.550781 -11.144531 9.929688 -11.3125 9.234375 -11.3125 C 8.210938 -11.3125 7.347656 -10.957031 6.640625 -10.25 C 5.929688 -9.539062 5.578125 -8.625 5.578125 -7.5 Z M 5.578125 -7.5 "/></g></g></g><g fill="#000000" fill-opacity="1"><g transform="translate(86.754971, 198.749987)"><g/></g></g><g fill="#000000" fill-opacity="1"><g transform="translate(93.22201, 198.749987)"><g><path d="M 7.078125 -12.96875 L 15.953125 -12.96875 L 15.953125 -8.65625 L 7.078125 -8.65625 L 7.078125 0 L 2.546875 0 L 2.546875 -21.921875 L 17 -21.921875 L 17 -17.609375 L 7.078125 -17.609375 Z M 7.078125 -12.96875 "/></g></g></g><g fill="#000000" fill-opacity="1"><g transform="translate(110.83153, 198.749987)"><g><path d="M 1.09375 -7.453125 C 1.09375 -8.566406 1.300781 -9.597656 1.71875 -10.546875 C 2.144531 -11.503906 2.734375 -12.335938 3.484375 -13.046875 C 4.242188 -13.753906 5.117188 -14.300781 6.109375 -14.6875 C 7.097656 -15.082031 8.160156 -15.28125 9.296875 -15.28125 C 10.804688 -15.28125 12.171875 -14.941406 13.390625 -14.265625 C 14.617188 -13.597656 15.597656 -12.679688 16.328125 -11.515625 C 17.054688 -10.347656 17.421875 -9.019531 17.421875 -7.53125 C 17.421875 -6.414062 17.207031 -5.375 16.78125 -4.40625 C 16.363281 -3.445312 15.773438 -2.613281 15.015625 -1.90625 C 14.265625 -1.195312 13.394531 -0.644531 12.40625 -0.25 C 11.414062 0.144531 10.359375 0.34375 9.234375 0.34375 C 7.722656 0.34375 6.351562 0.00390625 5.125 -0.671875 C 3.894531 -1.347656 2.914062 -2.269531 2.1875 -3.4375 C 1.457031 -4.613281 1.09375 -5.953125 1.09375 -7.453125 Z M 5.578125 -7.5 C 5.578125 -6.757812 5.742188 -6.097656 6.078125 -5.515625 C 6.410156 -4.929688 6.859375 -4.476562 7.421875 -4.15625 C 7.984375 -3.832031 8.597656 -3.671875 9.265625 -3.671875 C 10.296875 -3.671875 11.164062 -4.023438 11.875 -4.734375 C 12.582031 -5.441406 12.9375 -6.363281 12.9375 -7.5 C 12.9375 -8.25 12.765625 -8.90625 12.421875 -9.46875 C 12.085938 -10.039062 11.644531 -10.488281 11.09375 -10.8125 C 10.550781 -11.144531 9.929688 -11.3125 9.234375 -11.3125 C 8.210938 -11.3125 7.347656 -10.957031 6.640625 -10.25 C 5.929688 -9.539062 5.578125 -8.625 5.578125 -7.5 Z M 5.578125 -7.5 "/></g></g></g><g fill="#000000" fill-opacity="1"><g transform="translate(128.777009, 198.749987)"><g><path d="M 11.671875 -8.28125 C 11.671875 -9.125 11.460938 -9.820312 11.046875 -10.375 C 10.628906 -10.925781 9.972656 -11.203125 9.078125 -11.203125 C 8.160156 -11.203125 7.484375 -10.90625 7.046875 -10.3125 C 6.609375 -9.726562 6.390625 -9.050781 6.390625 -8.28125 L 6.390625 0 L 2.015625 0 L 2.015625 -14.953125 L 6.359375 -14.953125 L 6.359375 -12.984375 L 6.390625 -12.984375 C 6.660156 -13.492188 7.003906 -13.894531 7.421875 -14.1875 C 7.847656 -14.488281 8.273438 -14.710938 8.703125 -14.859375 C 9.140625 -15.015625 9.53125 -15.113281 9.875 -15.15625 C 10.21875 -15.207031 10.460938 -15.234375 10.609375 -15.234375 C 11.878906 -15.234375 12.910156 -14.953125 13.703125 -14.390625 C 14.492188 -13.828125 15.078125 -13.09375 15.453125 -12.1875 C 15.828125 -11.289062 16.015625 -10.328125 16.015625 -9.296875 L 16.015625 0 L 11.671875 0 Z M 11.671875 -8.28125 "/></g></g></g><g fill="#000000" fill-opacity="1"><g transform="translate(146.106567, 198.749987)"><g><path d="M 11.25 -0.078125 C 10.882812 0.0234375 10.535156 0.0976562 10.203125 0.140625 C 9.878906 0.179688 9.550781 0.203125 9.21875 0.203125 C 7.238281 0.203125 5.753906 -0.3125 4.765625 -1.34375 C 3.773438 -2.375 3.28125 -3.738281 3.28125 -5.4375 L 3.28125 -11.171875 L 0.59375 -11.171875 L 0.59375 -14.953125 L 3.328125 -14.953125 L 3.328125 -19.625 L 7.640625 -19.625 L 7.640625 -14.953125 L 11.34375 -14.953125 L 11.34375 -11.171875 L 7.640625 -11.171875 L 7.640625 -5.96875 C 7.640625 -5.082031 7.867188 -4.460938 8.328125 -4.109375 C 8.785156 -3.753906 9.425781 -3.578125 10.25 -3.578125 C 10.363281 -3.578125 10.507812 -3.585938 10.6875 -3.609375 C 10.875 -3.628906 11.0625 -3.660156 11.25 -3.703125 Z M 11.25 -0.078125 "/></g></g></g><g fill="#000000" fill-opacity="1"><g transform="translate(158.144858, 198.749987)"><g><path d="M 4.703125 -9.234375 C 4.160156 -9.234375 3.65625 -9.367188 3.1875 -9.640625 C 2.71875 -9.910156 2.347656 -10.273438 2.078125 -10.734375 C 1.816406 -11.191406 1.6875 -11.691406 1.6875 -12.234375 C 1.6875 -13.097656 1.976562 -13.828125 2.5625 -14.421875 C 3.144531 -15.015625 3.859375 -15.3125 4.703125 -15.3125 C 5.554688 -15.3125 6.273438 -15.015625 6.859375 -14.421875 C 7.441406 -13.828125 7.734375 -13.097656 7.734375 -12.234375 C 7.734375 -11.429688 7.441406 -10.726562 6.859375 -10.125 C 6.273438 -9.53125 5.554688 -9.234375 4.703125 -9.234375 Z M 4.703125 0.34375 C 4.160156 0.34375 3.65625 0.207031 3.1875 -0.0625 C 2.71875 -0.332031 2.347656 -0.703125 2.078125 -1.171875 C 1.816406 -1.640625 1.6875 -2.144531 1.6875 -2.6875 C 1.6875 -3.53125 1.976562 -4.25 2.5625 -4.84375 C 3.144531 -5.4375 3.859375 -5.734375 4.703125 -5.734375 C 5.554688 -5.734375 6.273438 -5.4375 6.859375 -4.84375 C 7.441406 -4.25 7.734375 -3.53125 7.734375 -2.6875 C 7.734375 -1.863281 7.441406 -1.148438 6.859375 -0.546875 C 6.273438 0.046875 5.554688 0.34375 4.703125 0.34375 Z M 4.703125 0.34375 "/></g></g></g><g fill="#000000" fill-opacity="1"><g transform="translate(166.991575, 198.749987)"><g/></g></g><g fill="#000000" fill-opacity="1"><g transform="translate(173.458608, 198.749987)"><g><path d="M 5.828125 -10.96875 C 5.828125 -9.707031 6.109375 -8.539062 6.671875 -7.46875 C 7.242188 -6.40625 8.035156 -5.554688 9.046875 -4.921875 C 10.066406 -4.285156 11.242188 -3.96875 12.578125 -3.96875 C 14.066406 -3.96875 15.316406 -4.3125 16.328125 -5 C 17.335938 -5.695312 17.972656 -6.585938 18.234375 -7.671875 L 11.5625 -7.671875 L 11.5625 -11.78125 L 22.953125 -11.78125 L 22.953125 -10.078125 C 22.953125 -8.378906 22.664062 -6.875 22.09375 -5.5625 C 21.53125 -4.257812 20.757812 -3.175781 19.78125 -2.3125 C 18.800781 -1.445312 17.691406 -0.785156 16.453125 -0.328125 C 15.210938 0.117188 13.921875 0.34375 12.578125 0.34375 C 10.878906 0.34375 9.332031 0.0507812 7.9375 -0.53125 C 6.550781 -1.125 5.351562 -1.9375 4.34375 -2.96875 C 3.332031 -4 2.554688 -5.191406 2.015625 -6.546875 C 1.472656 -7.910156 1.203125 -9.378906 1.203125 -10.953125 C 1.203125 -12.554688 1.5 -14.035156 2.09375 -15.390625 C 2.695312 -16.753906 3.523438 -17.953125 4.578125 -18.984375 C 5.628906 -20.023438 6.84375 -20.832031 8.21875 -21.40625 C 9.59375 -21.976562 11.0625 -22.265625 12.625 -22.265625 C 14.03125 -22.265625 15.285156 -22.070312 16.390625 -21.6875 C 17.503906 -21.300781 18.46875 -20.800781 19.28125 -20.1875 C 20.09375 -19.570312 20.765625 -18.90625 21.296875 -18.1875 C 21.828125 -17.46875 22.210938 -16.765625 22.453125 -16.078125 L 18.453125 -14.109375 C 18.242188 -14.671875 17.898438 -15.25 17.421875 -15.84375 C 16.953125 -16.445312 16.320312 -16.953125 15.53125 -17.359375 C 14.738281 -17.765625 13.753906 -17.96875 12.578125 -17.96875 C 11.335938 -17.96875 10.207031 -17.660156 9.1875 -17.046875 C 8.175781 -16.429688 7.363281 -15.597656 6.75 -14.546875 C 6.132812 -13.492188 5.828125 -12.300781 5.828125 -10.96875 Z M 5.828125 -10.96875 "/></g></g></g><g fill="#000000" fill-opacity="1"><g transform="translate(196.891346, 198.749987)"><g><path d="M 1.09375 -7.453125 C 1.09375 -8.566406 1.300781 -9.597656 1.71875 -10.546875 C 2.144531 -11.503906 2.734375 -12.335938 3.484375 -13.046875 C 4.242188 -13.753906 5.117188 -14.300781 6.109375 -14.6875 C 7.097656 -15.082031 8.160156 -15.28125 9.296875 -15.28125 C 10.804688 -15.28125 12.171875 -14.941406 13.390625 -14.265625 C 14.617188 -13.597656 15.597656 -12.679688 16.328125 -11.515625 C 17.054688 -10.347656 17.421875 -9.019531 17.421875 -7.53125 C 17.421875 -6.414062 17.207031 -5.375 16.78125 -4.40625 C 16.363281 -3.445312 15.773438 -2.613281 15.015625 -1.90625 C 14.265625 -1.195312 13.394531 -0.644531 12.40625 -0.25 C 11.414062 0.144531 10.359375 0.34375 9.234375 0.34375 C 7.722656 0.34375 6.351562 0.00390625 5.125 -0.671875 C 3.894531 -1.347656 2.914062 -2.269531 2.1875 -3.4375 C 1.457031 -4.613281 1.09375 -5.953125 1.09375 -7.453125 Z M 5.578125 -7.5 C 5.578125 -6.757812 5.742188 -6.097656 6.078125 -5.515625 C 6.410156 -4.929688 6.859375 -4.476562 7.421875 -4.15625 C 7.984375 -3.832031 8.597656 -3.671875 9.265625 -3.671875 C 10.296875 -3.671875 11.164062 -4.023438 11.875 -4.734375 C 12.582031 -5.441406 12.9375 -6.363281 12.9375 -7.5 C 12.9375 -8.25 12.765625 -8.90625 12.421875 -9.46875 C 12.085938 -10.039062 11.644531 -10.488281 11.09375 -10.8125 C 10.550781 -11.144531 9.929688 -11.3125 9.234375 -11.3125 C 8.210938 -11.3125 7.347656 -10.957031 6.640625 -10.25 C 5.929688 -9.539062 5.578125 -8.625 5.578125 -7.5 Z M 5.578125 -7.5 "/></g></g></g><g fill="#000000" fill-opacity="1"><g transform="translate(214.836825, 198.749987)"><g><path d="M 11.484375 -10.703125 C 11.140625 -10.753906 10.789062 -10.78125 10.4375 -10.78125 C 9.445312 -10.78125 8.65625 -10.578125 8.0625 -10.171875 C 7.46875 -9.773438 7.039062 -9.238281 6.78125 -8.5625 C 6.519531 -7.894531 6.390625 -7.148438 6.390625 -6.328125 L 6.390625 0 L 2.015625 0 L 2.015625 -14.953125 L 6.359375 -14.953125 L 6.359375 -12.65625 L 6.390625 -12.65625 C 6.679688 -13.3125 7.195312 -13.882812 7.9375 -14.375 C 8.675781 -14.875 9.566406 -15.125 10.609375 -15.125 C 10.960938 -15.125 11.253906 -15.085938 11.484375 -15.015625 Z M 11.484375 -10.703125 "/></g></g></g><g fill="#000000" fill-opacity="1"><g transform="translate(226.175196, 198.749987)"><g><path d="M 12.9375 -1.90625 L 12.875 -1.90625 C 12.414062 -1.226562 11.882812 -0.734375 11.28125 -0.421875 C 10.6875 -0.117188 10.113281 0.0703125 9.5625 0.15625 C 9.007812 0.238281 8.566406 0.28125 8.234375 0.28125 C 7.148438 0.28125 6.164062 0.0664062 5.28125 -0.359375 C 4.40625 -0.796875 3.660156 -1.375 3.046875 -2.09375 C 2.429688 -2.820312 1.957031 -3.648438 1.625 -4.578125 C 1.289062 -5.515625 1.125 -6.488281 1.125 -7.5 C 1.125 -8.457031 1.296875 -9.390625 1.640625 -10.296875 C 1.984375 -11.210938 2.472656 -12.039062 3.109375 -12.78125 C 3.742188 -13.519531 4.5 -14.113281 5.375 -14.5625 C 6.25 -15.007812 7.21875 -15.234375 8.28125 -15.234375 C 8.582031 -15.234375 8.984375 -15.195312 9.484375 -15.125 C 9.992188 -15.050781 10.539062 -14.875 11.125 -14.59375 C 11.71875 -14.3125 12.265625 -13.863281 12.765625 -13.25 L 12.828125 -13.25 L 12.828125 -22.796875 L 17.171875 -22.796875 L 17.171875 0 L 12.9375 0 Z M 12.9375 -7.5 C 12.9375 -8.25 12.765625 -8.90625 12.421875 -9.46875 C 12.085938 -10.039062 11.644531 -10.484375 11.09375 -10.796875 C 10.550781 -11.117188 9.929688 -11.28125 9.234375 -11.28125 C 8.566406 -11.28125 7.953125 -11.117188 7.390625 -10.796875 C 6.828125 -10.484375 6.378906 -10.039062 6.046875 -9.46875 C 5.710938 -8.90625 5.546875 -8.25 5.546875 -7.5 C 5.546875 -6.757812 5.710938 -6.097656 6.046875 -5.515625 C 6.378906 -4.929688 6.828125 -4.476562 7.390625 -4.15625 C 7.953125 -3.832031 8.566406 -3.671875 9.234375 -3.671875 C 9.929688 -3.671875 10.550781 -3.832031 11.09375 -4.15625 C 11.644531 -4.476562 12.085938 -4.929688 12.421875 -5.515625 C 12.765625 -6.097656 12.9375 -6.757812 12.9375 -7.5 Z M 12.9375 -7.5 "/></g></g></g><g fill="#000000" fill-opacity="1"><g transform="translate(244.820572, 198.749987)"><g><path d="M 1.484375 -20.15625 C 1.484375 -20.925781 1.75 -21.570312 2.28125 -22.09375 C 2.8125 -22.613281 3.441406 -22.875 4.171875 -22.875 C 4.929688 -22.875 5.578125 -22.613281 6.109375 -22.09375 C 6.648438 -21.570312 6.921875 -20.925781 6.921875 -20.15625 C 6.921875 -19.414062 6.648438 -18.78125 6.109375 -18.25 C 5.578125 -17.726562 4.929688 -17.46875 4.171875 -17.46875 C 3.441406 -17.46875 2.8125 -17.726562 2.28125 -18.25 C 1.75 -18.78125 1.484375 -19.414062 1.484375 -20.15625 Z M 2.015625 0 L 6.40625 0 L 6.40625 -14.953125 L 2.015625 -14.953125 Z M 2.015625 0 "/></g></g></g><g fill="#000000" fill-opacity="1"><g transform="translate(252.687424, 198.749987)"><g><path d="M 11.25 -0.078125 C 10.882812 0.0234375 10.535156 0.0976562 10.203125 0.140625 C 9.878906 0.179688 9.550781 0.203125 9.21875 0.203125 C 7.238281 0.203125 5.753906 -0.3125 4.765625 -1.34375 C 3.773438 -2.375 3.28125 -3.738281 3.28125 -5.4375 L 3.28125 -11.171875 L 0.59375 -11.171875 L 0.59375 -14.953125 L 3.328125 -14.953125 L 3.328125 -19.625 L 7.640625 -19.625 L 7.640625 -14.953125 L 11.34375 -14.953125 L 11.34375 -11.171875 L 7.640625 -11.171875 L 7.640625 -5.96875 C 7.640625 -5.082031 7.867188 -4.460938 8.328125 -4.109375 C 8.785156 -3.753906 9.425781 -3.578125 10.25 -3.578125 C 10.363281 -3.578125 10.507812 -3.585938 10.6875 -3.609375 C 10.875 -3.628906 11.0625 -3.660156 11.25 -3.703125 Z M 11.25 -0.078125 "/></g></g></g><g fill="#000000" fill-opacity="1"><g transform="translate(264.725715, 198.749987)"><g><path d="M 6.21875 0.28125 C 5.320312 0.28125 4.488281 0.101562 3.71875 -0.25 C 2.957031 -0.601562 2.34375 -1.113281 1.875 -1.78125 C 1.40625 -2.457031 1.171875 -3.253906 1.171875 -4.171875 L 1.171875 -4.234375 C 1.171875 -5.160156 1.367188 -5.914062 1.765625 -6.5 C 2.171875 -7.09375 2.707031 -7.5625 3.375 -7.90625 C 4.039062 -8.25 4.765625 -8.484375 5.546875 -8.609375 C 6.328125 -8.742188 7.09375 -8.8125 7.84375 -8.8125 L 9.328125 -8.8125 C 9.734375 -8.8125 10.03125 -8.921875 10.21875 -9.140625 C 10.40625 -9.359375 10.5 -9.613281 10.5 -9.90625 C 10.5 -10.394531 10.300781 -10.828125 9.90625 -11.203125 C 9.519531 -11.578125 8.914062 -11.765625 8.09375 -11.765625 C 7.3125 -11.765625 6.648438 -11.585938 6.109375 -11.234375 C 5.578125 -10.890625 5.128906 -10.394531 4.765625 -9.75 L 1.421875 -11.734375 C 2.023438 -12.835938 2.894531 -13.703125 4.03125 -14.328125 C 5.164062 -14.960938 6.582031 -15.28125 8.28125 -15.28125 C 9.550781 -15.28125 10.675781 -15.0625 11.65625 -14.625 C 12.632812 -14.1875 13.398438 -13.519531 13.953125 -12.625 C 14.503906 -11.726562 14.78125 -10.609375 14.78125 -9.265625 L 14.78125 0 L 10.75 0 L 10.75 -1.84375 L 10.703125 -1.875 C 10.140625 -1.070312 9.457031 -0.507812 8.65625 -0.1875 C 7.851562 0.125 7.039062 0.28125 6.21875 0.28125 Z M 7.46875 -2.90625 C 8.445312 -2.90625 9.191406 -3.191406 9.703125 -3.765625 C 10.210938 -4.335938 10.46875 -5.015625 10.46875 -5.796875 L 10.46875 -6.125 L 7.84375 -6.125 C 7.257812 -6.125 6.734375 -5.988281 6.265625 -5.71875 C 5.804688 -5.445312 5.578125 -5.015625 5.578125 -4.421875 C 5.578125 -3.898438 5.757812 -3.515625 6.125 -3.265625 C 6.5 -3.023438 6.945312 -2.90625 7.46875 -2.90625 Z M 7.46875 -2.90625 "/></g></g></g><g fill="#000000" fill-opacity="1"><g transform="translate(280.823454, 198.749987)"><g/></g></g><g fill="#000000" fill-opacity="1"><g transform="translate(287.290487, 198.749987)"><g><path d="M 1.3125 -3.96875 L 8.953125 -10.25 C 9.835938 -10.957031 10.539062 -11.578125 11.0625 -12.109375 C 11.582031 -12.640625 11.960938 -13.144531 12.203125 -13.625 C 12.453125 -14.101562 12.578125 -14.609375 12.578125 -15.140625 C 12.578125 -15.910156 12.285156 -16.578125 11.703125 -17.140625 C 11.128906 -17.710938 10.375 -18 9.4375 -18 C 8.570312 -18 7.8125 -17.769531 7.15625 -17.3125 C 6.507812 -16.851562 6 -16.171875 5.625 -15.265625 L 1.453125 -17.03125 C 1.828125 -18.238281 2.421875 -19.222656 3.234375 -19.984375 C 4.046875 -20.753906 4.992188 -21.328125 6.078125 -21.703125 C 7.160156 -22.078125 8.289062 -22.265625 9.46875 -22.265625 C 11.09375 -22.265625 12.484375 -21.941406 13.640625 -21.296875 C 14.796875 -20.648438 15.6875 -19.796875 16.3125 -18.734375 C 16.9375 -17.671875 17.25 -16.484375 17.25 -15.171875 C 17.25 -14.035156 17.03125 -13.039062 16.59375 -12.1875 C 16.164062 -11.34375 15.53125 -10.523438 14.6875 -9.734375 C 13.851562 -8.941406 12.820312 -8.054688 11.59375 -7.078125 L 7.890625 -4.140625 L 17.359375 -4.140625 L 17.359375 0 L 1.3125 0 Z M 1.3125 -3.96875 "/></g></g></g><g fill="#000000" fill-opacity="1"><g transform="translate(305.627903, 198.749987)"><g><path d="M 17.78125 -6.1875 C 17.78125 -4.84375 17.410156 -3.6875 16.671875 -2.71875 C 15.929688 -1.757812 14.941406 -1.019531 13.703125 -0.5 C 12.460938 0.0195312 11.085938 0.28125 9.578125 0.28125 C 8.066406 0.28125 6.6875 0.015625 5.4375 -0.515625 C 4.195312 -1.046875 3.210938 -1.789062 2.484375 -2.75 C 1.765625 -3.71875 1.40625 -4.835938 1.40625 -6.109375 C 1.40625 -7.390625 1.726562 -8.453125 2.375 -9.296875 C 3.03125 -10.140625 3.984375 -10.832031 5.234375 -11.375 L 5.234375 -11.390625 C 4.222656 -11.804688 3.40625 -12.441406 2.78125 -13.296875 C 2.15625 -14.160156 1.84375 -15.148438 1.84375 -16.265625 C 1.84375 -17.398438 2.164062 -18.414062 2.8125 -19.3125 C 3.457031 -20.21875 4.359375 -20.9375 5.515625 -21.46875 C 6.671875 -22 8.035156 -22.265625 9.609375 -22.265625 C 11.191406 -22.265625 12.554688 -22 13.703125 -21.46875 C 14.847656 -20.9375 15.738281 -20.21875 16.375 -19.3125 C 17.007812 -18.40625 17.328125 -17.390625 17.328125 -16.265625 C 17.328125 -15.148438 17.019531 -14.160156 16.40625 -13.296875 C 15.789062 -12.441406 14.96875 -11.804688 13.9375 -11.390625 L 13.9375 -11.375 C 15.226562 -10.832031 16.191406 -10.140625 16.828125 -9.296875 C 17.460938 -8.453125 17.78125 -7.414062 17.78125 -6.1875 Z M 12.796875 -15.703125 C 12.796875 -16.472656 12.503906 -17.125 11.921875 -17.65625 C 11.347656 -18.1875 10.566406 -18.453125 9.578125 -18.453125 C 8.640625 -18.453125 7.875 -18.191406 7.28125 -17.671875 C 6.6875 -17.148438 6.390625 -16.503906 6.390625 -15.734375 C 6.390625 -15.160156 6.546875 -14.664062 6.859375 -14.25 C 7.179688 -13.84375 7.582031 -13.53125 8.0625 -13.3125 C 8.550781 -13.09375 9.054688 -12.984375 9.578125 -12.984375 C 10.117188 -12.984375 10.628906 -13.09375 11.109375 -13.3125 C 11.597656 -13.53125 12 -13.835938 12.3125 -14.234375 C 12.632812 -14.640625 12.796875 -15.128906 12.796875 -15.703125 Z M 13.21875 -6.46875 C 13.21875 -7.082031 13.035156 -7.585938 12.671875 -7.984375 C 12.304688 -8.390625 11.847656 -8.691406 11.296875 -8.890625 C 10.742188 -9.085938 10.179688 -9.1875 9.609375 -9.1875 C 9.023438 -9.1875 8.453125 -9.085938 7.890625 -8.890625 C 7.335938 -8.691406 6.878906 -8.390625 6.515625 -7.984375 C 6.148438 -7.585938 5.96875 -7.082031 5.96875 -6.46875 C 5.96875 -5.664062 6.289062 -4.972656 6.9375 -4.390625 C 7.59375 -3.816406 8.460938 -3.53125 9.546875 -3.53125 C 10.703125 -3.53125 11.601562 -3.816406 12.25 -4.390625 C 12.894531 -4.972656 13.21875 -5.664062 13.21875 -6.46875 Z M 13.21875 -6.46875 "/></g></g></g><g fill="#000000" fill-opacity="1"><g transform="translate(324.27328, 198.749987)"><g><path d="M 6.359375 -13.109375 L 6.40625 -13.109375 C 6.894531 -13.753906 7.421875 -14.226562 7.984375 -14.53125 C 8.554688 -14.832031 9.113281 -15.023438 9.65625 -15.109375 C 10.195312 -15.191406 10.632812 -15.234375 10.96875 -15.234375 C 12.070312 -15.234375 13.0625 -15.007812 13.9375 -14.5625 C 14.820312 -14.113281 15.570312 -13.519531 16.1875 -12.78125 C 16.800781 -12.039062 17.269531 -11.210938 17.59375 -10.296875 C 17.925781 -9.390625 18.09375 -8.457031 18.09375 -7.5 C 18.09375 -6.53125 17.914062 -5.582031 17.5625 -4.65625 C 17.21875 -3.738281 16.726562 -2.90625 16.09375 -2.15625 C 15.457031 -1.40625 14.695312 -0.8125 13.8125 -0.375 C 12.925781 0.0625 11.941406 0.28125 10.859375 0.28125 C 10.503906 0.28125 10.070312 0.238281 9.5625 0.15625 C 9.050781 0.0703125 8.519531 -0.101562 7.96875 -0.375 C 7.414062 -0.644531 6.90625 -1.070312 6.4375 -1.65625 L 6.390625 -1.65625 L 6.390625 7.390625 L 2.015625 7.390625 L 2.015625 -14.953125 L 6.359375 -14.953125 Z M 6.265625 -7.5 C 6.265625 -6.757812 6.429688 -6.097656 6.765625 -5.515625 C 7.109375 -4.929688 7.554688 -4.476562 8.109375 -4.15625 C 8.671875 -3.832031 9.289062 -3.671875 9.96875 -3.671875 C 10.65625 -3.671875 11.273438 -3.832031 11.828125 -4.15625 C 12.378906 -4.476562 12.820312 -4.929688 13.15625 -5.515625 C 13.488281 -6.097656 13.65625 -6.757812 13.65625 -7.5 C 13.65625 -8.625 13.296875 -9.535156 12.578125 -10.234375 C 11.867188 -10.929688 10.988281 -11.28125 9.9375 -11.28125 C 9.269531 -11.28125 8.660156 -11.117188 8.109375 -10.796875 C 7.554688 -10.484375 7.109375 -10.039062 6.765625 -9.46875 C 6.429688 -8.90625 6.265625 -8.25 6.265625 -7.5 Z M 6.265625 -7.5 "/></g></g></g><g fill="#000000" fill-opacity="1"><g transform="translate(342.918657, 198.749987)"><g><path d="M 5.15625 0 L 0.3125 0 L 5.6875 -7.53125 L 0.46875 -14.953125 L 5.375 -14.953125 L 8.0625 -10.71875 L 10.84375 -14.953125 L 15.65625 -14.953125 L 10.390625 -7.609375 L 15.796875 0 L 10.890625 0 L 8.03125 -4.390625 Z M 5.15625 0 "/></g></g></g></svg>