<svg xmlns="http://www.w3.org/2000/svg" xmlns:xlink="http://www.w3.org/1999/xlink" width="500" zoomAndPan="magnify" viewBox="0 0 375 374.999991" height="500" preserveAspectRatio="xMidYMid meet" version="1.0"><defs><g/><clipPath id="dc4cd6a3a1"><path d="M 75.609375 138 L 150.609375 138 L 150.609375 205 L 75.609375 205 Z M 75.609375 138 " clip-rule="nonzero"/></clipPath><clipPath id="e8190ded29"><path d="M 75.609375 170 L 150.609375 170 L 150.609375 237 L 75.609375 237 Z M 75.609375 170 " clip-rule="nonzero"/></clipPath></defs><g clip-path="url(#dc4cd6a3a1)"><path fill="#ffffff" d="M 79.394531 179.28125 L 106.140625 201.835938 C 106.636719 202.246094 107.164062 202.613281 107.722656 202.933594 C 108.28125 203.25 108.863281 203.519531 109.46875 203.738281 C 110.074219 203.957031 110.695312 204.121094 111.328125 204.230469 C 111.960938 204.34375 112.601562 204.398438 113.246094 204.398438 C 113.890625 204.398438 114.527344 204.34375 115.164062 204.230469 C 115.796875 204.121094 116.417969 203.957031 117.023438 203.738281 C 117.628906 203.519531 118.210938 203.25 118.769531 202.933594 C 119.328125 202.613281 119.855469 202.246094 120.351562 201.835938 L 128.1875 195.226562 C 128.480469 194.980469 128.71875 194.6875 128.894531 194.347656 C 129.070312 194.003906 129.175781 193.644531 129.207031 193.261719 C 129.238281 192.878906 129.199219 192.503906 129.082031 192.140625 C 128.964844 191.773438 128.785156 191.445312 128.535156 191.152344 C 128.289062 190.855469 127.996094 190.621094 127.652344 190.445312 C 127.3125 190.269531 126.953125 190.164062 126.570312 190.132812 C 126.1875 190.101562 125.8125 190.140625 125.445312 190.257812 C 125.082031 190.375 124.75 190.554688 124.457031 190.804688 L 116.621094 197.410156 C 116.148438 197.804688 115.621094 198.105469 115.039062 198.316406 C 114.460938 198.523438 113.863281 198.628906 113.246094 198.628906 C 112.628906 198.628906 112.03125 198.523438 111.453125 198.316406 C 110.871094 198.105469 110.34375 197.804688 109.871094 197.410156 L 83.125 174.855469 C 82.859375 174.636719 82.621094 174.394531 82.40625 174.121094 C 82.195312 173.851562 82.015625 173.558594 81.867188 173.246094 C 81.71875 172.933594 81.609375 172.609375 81.53125 172.273438 C 81.457031 171.9375 81.417969 171.597656 81.417969 171.253906 C 81.417969 170.90625 81.457031 170.566406 81.53125 170.230469 C 81.609375 169.894531 81.71875 169.570312 81.867188 169.257812 C 82.015625 168.949219 82.195312 168.65625 82.40625 168.382812 C 82.621094 168.113281 82.859375 167.867188 83.125 167.648438 L 109.871094 145.09375 C 110.34375 144.699219 110.871094 144.398438 111.453125 144.191406 C 112.03125 143.980469 112.628906 143.875 113.246094 143.875 C 113.863281 143.875 114.460938 143.980469 115.039062 144.191406 C 115.621094 144.398438 116.148438 144.699219 116.621094 145.09375 L 143.367188 167.648438 C 143.632812 167.867188 143.871094 168.113281 144.085938 168.382812 C 144.296875 168.65625 144.476562 168.949219 144.625 169.257812 C 144.773438 169.570312 144.882812 169.894531 144.960938 170.230469 C 145.035156 170.566406 145.074219 170.90625 145.074219 171.253906 C 145.074219 171.597656 145.035156 171.9375 144.960938 172.273438 C 144.882812 172.609375 144.773438 172.933594 144.625 173.246094 C 144.476562 173.558594 144.296875 173.851562 144.085938 174.121094 C 143.871094 174.394531 143.632812 174.636719 143.367188 174.855469 L 137.601562 179.71875 C 137.3125 179.96875 137.082031 180.261719 136.914062 180.601562 C 136.742188 180.941406 136.640625 181.300781 136.613281 181.679688 C 136.582031 182.058594 136.625 182.429688 136.742188 182.792969 C 136.859375 183.152344 137.039062 183.480469 137.285156 183.769531 C 137.53125 184.0625 137.820312 184.292969 138.15625 184.46875 C 138.496094 184.644531 138.851562 184.75 139.230469 184.785156 C 139.609375 184.820312 139.980469 184.78125 140.34375 184.671875 C 140.707031 184.558594 141.035156 184.382812 141.332031 184.144531 L 147.097656 179.28125 C 147.390625 179.035156 147.667969 178.777344 147.933594 178.5 C 148.199219 178.226562 148.449219 177.9375 148.679688 177.636719 C 148.914062 177.332031 149.132812 177.019531 149.328125 176.691406 C 149.527344 176.367188 149.710938 176.03125 149.871094 175.6875 C 150.035156 175.339844 150.175781 174.984375 150.300781 174.625 C 150.421875 174.261719 150.527344 173.894531 150.609375 173.523438 C 150.691406 173.152344 150.753906 172.773438 150.796875 172.394531 C 150.839844 172.015625 150.859375 171.636719 150.859375 171.253906 C 150.859375 170.871094 150.839844 170.492188 150.796875 170.109375 C 150.753906 169.730469 150.691406 169.355469 150.609375 168.980469 C 150.527344 168.609375 150.421875 168.242188 150.300781 167.882812 C 150.175781 167.519531 150.035156 167.164062 149.871094 166.820312 C 149.710938 166.472656 149.527344 166.136719 149.328125 165.8125 C 149.132812 165.488281 148.914062 165.171875 148.679688 164.871094 C 148.449219 164.566406 148.199219 164.28125 147.933594 164.003906 C 147.667969 163.730469 147.390625 163.46875 147.097656 163.226562 L 120.351562 140.671875 C 119.855469 140.261719 119.328125 139.894531 118.769531 139.574219 C 118.210938 139.253906 117.628906 138.988281 117.023438 138.769531 C 116.417969 138.550781 115.796875 138.386719 115.164062 138.273438 C 114.527344 138.164062 113.890625 138.109375 113.246094 138.109375 C 112.601562 138.109375 111.960938 138.164062 111.328125 138.273438 C 110.695312 138.386719 110.074219 138.550781 109.46875 138.769531 C 108.863281 138.988281 108.28125 139.253906 107.722656 139.574219 C 107.164062 139.894531 106.636719 140.261719 106.140625 140.671875 L 79.394531 163.226562 C 79.101562 163.46875 78.824219 163.730469 78.558594 164.003906 C 78.292969 164.28125 78.042969 164.566406 77.808594 164.871094 C 77.578125 165.171875 77.359375 165.488281 77.160156 165.8125 C 76.960938 166.136719 76.78125 166.472656 76.621094 166.820312 C 76.457031 167.164062 76.316406 167.519531 76.191406 167.882812 C 76.066406 168.242188 75.964844 168.609375 75.882812 168.980469 C 75.800781 169.355469 75.738281 169.730469 75.695312 170.109375 C 75.652344 170.492188 75.632812 170.871094 75.632812 171.253906 C 75.632812 171.636719 75.652344 172.015625 75.695312 172.394531 C 75.738281 172.773438 75.800781 173.152344 75.882812 173.523438 C 75.964844 173.894531 76.066406 174.261719 76.191406 174.625 C 76.316406 174.984375 76.457031 175.339844 76.621094 175.6875 C 76.78125 176.03125 76.960938 176.367188 77.160156 176.691406 C 77.359375 177.019531 77.578125 177.332031 77.808594 177.636719 C 78.042969 177.9375 78.292969 178.226562 78.558594 178.5 C 78.824219 178.777344 79.101562 179.035156 79.394531 179.28125 Z M 79.394531 179.28125 " fill-opacity="1" fill-rule="nonzero"/></g><g clip-path="url(#e8190ded29)"><path fill="#ffffff" d="M 147.097656 195.695312 L 120.351562 173.136719 C 119.855469 172.726562 119.328125 172.363281 118.769531 172.042969 C 118.210938 171.722656 117.628906 171.453125 117.023438 171.238281 C 116.417969 171.019531 115.796875 170.851562 115.164062 170.742188 C 114.527344 170.632812 113.890625 170.578125 113.246094 170.578125 C 112.601562 170.578125 111.960938 170.632812 111.328125 170.742188 C 110.695312 170.851562 110.074219 171.019531 109.46875 171.238281 C 108.863281 171.453125 108.28125 171.722656 107.722656 172.042969 C 107.164062 172.363281 106.636719 172.726562 106.140625 173.136719 L 98.300781 179.746094 C 98.007812 179.996094 97.773438 180.289062 97.597656 180.628906 C 97.421875 180.96875 97.316406 181.332031 97.285156 181.714844 C 97.253906 182.097656 97.292969 182.472656 97.410156 182.835938 C 97.527344 183.203125 97.707031 183.53125 97.957031 183.824219 C 98.203125 184.117188 98.496094 184.355469 98.839844 184.53125 C 99.179688 184.707031 99.542969 184.8125 99.921875 184.84375 C 100.304688 184.875 100.679688 184.832031 101.046875 184.71875 C 101.410156 184.601562 101.742188 184.417969 102.035156 184.171875 L 109.871094 177.5625 C 110.34375 177.167969 110.871094 176.867188 111.453125 176.660156 C 112.03125 176.449219 112.628906 176.34375 113.246094 176.34375 C 113.863281 176.34375 114.460938 176.449219 115.039062 176.660156 C 115.621094 176.867188 116.148438 177.167969 116.621094 177.5625 L 143.367188 200.117188 C 143.632812 200.335938 143.871094 200.582031 144.085938 200.851562 C 144.296875 201.125 144.476562 201.417969 144.625 201.726562 C 144.773438 202.039062 144.882812 202.363281 144.960938 202.699219 C 145.035156 203.035156 145.074219 203.378906 145.074219 203.722656 C 145.074219 204.066406 145.035156 204.40625 144.960938 204.742188 C 144.882812 205.082031 144.773438 205.40625 144.625 205.714844 C 144.476562 206.027344 144.296875 206.320312 144.085938 206.589844 C 143.871094 206.863281 143.632812 207.109375 143.367188 207.328125 L 116.621094 229.882812 C 116.148438 230.273438 115.621094 230.574219 115.039062 230.785156 C 114.460938 230.996094 113.863281 231.097656 113.246094 231.097656 C 112.628906 231.097656 112.03125 230.996094 111.453125 230.785156 C 110.871094 230.574219 110.34375 230.273438 109.871094 229.882812 L 83.125 207.328125 C 82.859375 207.109375 82.621094 206.863281 82.40625 206.589844 C 82.195312 206.320312 82.015625 206.027344 81.867188 205.714844 C 81.71875 205.40625 81.609375 205.082031 81.53125 204.742188 C 81.457031 204.40625 81.417969 204.066406 81.417969 203.722656 C 81.417969 203.378906 81.457031 203.035156 81.53125 202.699219 C 81.609375 202.363281 81.71875 202.039062 81.867188 201.726562 C 82.015625 201.417969 82.195312 201.125 82.40625 200.851562 C 82.621094 200.582031 82.859375 200.335938 83.125 200.117188 L 88.890625 195.253906 C 89.179688 195.007812 89.40625 194.710938 89.578125 194.371094 C 89.75 194.03125 89.851562 193.671875 89.878906 193.292969 C 89.910156 192.914062 89.867188 192.546875 89.75 192.183594 C 89.632812 191.820312 89.453125 191.496094 89.207031 191.203125 C 88.960938 190.914062 88.671875 190.679688 88.332031 190.503906 C 87.996094 190.328125 87.636719 190.222656 87.261719 190.1875 C 86.882812 190.152344 86.511719 190.191406 86.148438 190.304688 C 85.785156 190.414062 85.453125 190.589844 85.160156 190.832031 L 79.394531 195.695312 C 79.101562 195.9375 78.824219 196.199219 78.558594 196.472656 C 78.292969 196.75 78.042969 197.039062 77.808594 197.339844 C 77.578125 197.640625 77.359375 197.957031 77.160156 198.28125 C 76.960938 198.609375 76.78125 198.945312 76.621094 199.289062 C 76.457031 199.636719 76.316406 199.988281 76.191406 200.351562 C 76.066406 200.710938 75.964844 201.078125 75.882812 201.453125 C 75.800781 201.824219 75.738281 202.199219 75.695312 202.578125 C 75.652344 202.960938 75.632812 203.339844 75.632812 203.722656 C 75.632812 204.105469 75.652344 204.484375 75.695312 204.863281 C 75.738281 205.242188 75.800781 205.621094 75.882812 205.992188 C 75.964844 206.367188 76.066406 206.734375 76.191406 207.09375 C 76.316406 207.457031 76.457031 207.808594 76.621094 208.15625 C 76.78125 208.5 76.960938 208.835938 77.160156 209.164062 C 77.359375 209.488281 77.578125 209.800781 77.808594 210.105469 C 78.042969 210.40625 78.292969 210.695312 78.558594 210.96875 C 78.824219 211.246094 79.101562 211.503906 79.394531 211.75 L 106.140625 234.304688 C 106.636719 234.714844 107.164062 235.082031 107.722656 235.398438 C 108.28125 235.71875 108.863281 235.988281 109.46875 236.207031 C 110.074219 236.425781 110.695312 236.589844 111.328125 236.699219 C 111.960938 236.8125 112.601562 236.867188 113.246094 236.867188 C 113.890625 236.867188 114.527344 236.8125 115.164062 236.699219 C 115.796875 236.589844 116.417969 236.425781 117.023438 236.207031 C 117.628906 235.988281 118.210938 235.71875 118.769531 235.398438 C 119.328125 235.082031 119.855469 234.714844 120.351562 234.304688 L 147.097656 211.75 C 147.390625 211.503906 147.667969 211.246094 147.933594 210.96875 C 148.199219 210.695312 148.449219 210.40625 148.679688 210.105469 C 148.914062 209.800781 149.132812 209.488281 149.328125 209.164062 C 149.527344 208.835938 149.710938 208.5 149.871094 208.15625 C 150.035156 207.808594 150.175781 207.457031 150.300781 207.09375 C 150.421875 206.734375 150.527344 206.367188 150.609375 205.992188 C 150.691406 205.621094 150.753906 205.242188 150.796875 204.863281 C 150.839844 204.484375 150.859375 204.105469 150.859375 203.722656 C 150.859375 203.339844 150.839844 202.960938 150.796875 202.578125 C 150.753906 202.199219 150.691406 201.824219 150.609375 201.453125 C 150.527344 201.078125 150.421875 200.710938 150.300781 200.351562 C 150.175781 199.988281 150.035156 199.636719 149.871094 199.289062 C 149.710938 198.945312 149.527344 198.609375 149.328125 198.28125 C 149.132812 197.957031 148.914062 197.640625 148.679688 197.339844 C 148.449219 197.039062 148.199219 196.75 147.933594 196.472656 C 147.667969 196.199219 147.390625 195.9375 147.097656 195.695312 Z M 147.097656 195.695312 " fill-opacity="1" fill-rule="nonzero"/></g><g fill="#ffffff" fill-opacity="1"><g transform="translate(157.209661, 202.499987)"><g/></g></g><g fill="#ffffff" fill-opacity="1"><g transform="translate(166.455755, 202.499987)"><g><path d="M 8.484375 -22.765625 C 8.484375 -21.773438 8.898438 -21.003906 9.734375 -20.453125 C 10.578125 -19.910156 11.835938 -19.398438 13.515625 -18.921875 C 15.835938 -18.253906 17.816406 -17.503906 19.453125 -16.671875 C 21.097656 -15.847656 22.347656 -14.835938 23.203125 -13.640625 C 24.054688 -12.441406 24.484375 -10.960938 24.484375 -9.203125 C 24.484375 -7.359375 24.039062 -5.707031 23.15625 -4.25 C 22.28125 -2.800781 20.988281 -1.648438 19.28125 -0.796875 C 17.570312 0.0546875 15.476562 0.484375 13 0.484375 C 10.039062 0.484375 7.492188 -0.179688 5.359375 -1.515625 C 3.222656 -2.847656 1.691406 -4.632812 0.765625 -6.875 L 6.359375 -9.765625 C 6.972656 -8.398438 7.875 -7.332031 9.0625 -6.5625 C 10.25 -5.789062 11.628906 -5.40625 13.203125 -5.40625 C 14.609375 -5.40625 15.75 -5.71875 16.625 -6.34375 C 17.507812 -6.96875 17.953125 -7.757812 17.953125 -8.71875 C 17.953125 -9.332031 17.78125 -9.859375 17.4375 -10.296875 C 17.09375 -10.734375 16.484375 -11.140625 15.609375 -11.515625 C 14.742188 -11.890625 13.554688 -12.304688 12.046875 -12.765625 C 10.359375 -13.265625 8.875 -13.8125 7.59375 -14.40625 C 6.320312 -15.007812 5.257812 -15.726562 4.40625 -16.5625 C 3.675781 -17.25 3.09375 -18.085938 2.65625 -19.078125 C 2.21875 -20.066406 2 -21.160156 2 -22.359375 C 2 -24.222656 2.5 -25.863281 3.5 -27.28125 C 4.5 -28.695312 5.820312 -29.800781 7.46875 -30.59375 C 9.125 -31.394531 10.941406 -31.796875 12.921875 -31.796875 C 15.535156 -31.796875 17.796875 -31.203125 19.703125 -30.015625 C 21.609375 -28.828125 23.015625 -27.171875 23.921875 -25.046875 L 18.5625 -22.125 C 18.050781 -23.375 17.269531 -24.320312 16.21875 -24.96875 C 15.164062 -25.625 13.972656 -25.953125 12.640625 -25.953125 C 11.335938 -25.953125 10.316406 -25.648438 9.578125 -25.046875 C 8.847656 -24.453125 8.484375 -23.691406 8.484375 -22.765625 Z M 8.484375 -22.765625 "/></g></g></g><g fill="#ffffff" fill-opacity="1"><g transform="translate(191.733171, 202.499987)"><g><path d="M 16.078125 -0.125 C 15.546875 0.0390625 15.046875 0.148438 14.578125 0.203125 C 14.109375 0.253906 13.632812 0.28125 13.15625 0.28125 C 10.332031 0.28125 8.210938 -0.453125 6.796875 -1.921875 C 5.390625 -3.390625 4.6875 -5.335938 4.6875 -7.765625 L 4.6875 -15.953125 L 0.84375 -15.953125 L 0.84375 -21.359375 L 4.765625 -21.359375 L 4.765625 -28.046875 L 10.921875 -28.046875 L 10.921875 -21.359375 L 16.203125 -21.359375 L 16.203125 -15.953125 L 10.921875 -15.953125 L 10.921875 -8.515625 C 10.921875 -7.265625 11.242188 -6.382812 11.890625 -5.875 C 12.546875 -5.375 13.460938 -5.125 14.640625 -5.125 C 14.796875 -5.125 15.007812 -5.132812 15.28125 -5.15625 C 15.550781 -5.1875 15.816406 -5.226562 16.078125 -5.28125 Z M 16.078125 -0.125 "/></g></g></g><g fill="#ffffff" fill-opacity="1"><g transform="translate(208.931391, 202.499987)"><g><path d="M 7.921875 -8.953125 C 8.128906 -7.617188 8.734375 -6.585938 9.734375 -5.859375 C 10.734375 -5.128906 11.890625 -4.765625 13.203125 -4.765625 C 14.109375 -4.765625 15.003906 -4.988281 15.890625 -5.4375 C 16.785156 -5.894531 17.472656 -6.519531 17.953125 -7.3125 L 22.484375 -4.359375 C 20.691406 -1.128906 17.625 0.484375 13.28125 0.484375 C 11.125 0.484375 9.15625 0.0078125 7.375 -0.9375 C 5.601562 -1.882812 4.191406 -3.195312 3.140625 -4.875 C 2.085938 -6.5625 1.5625 -8.507812 1.5625 -10.71875 C 1.5625 -12.269531 1.859375 -13.71875 2.453125 -15.0625 C 3.054688 -16.40625 3.878906 -17.585938 4.921875 -18.609375 C 5.960938 -19.640625 7.160156 -20.441406 8.515625 -21.015625 C 9.878906 -21.585938 11.332031 -21.875 12.875 -21.875 C 15.007812 -21.875 16.867188 -21.421875 18.453125 -20.515625 C 20.046875 -19.609375 21.285156 -18.351562 22.171875 -16.75 C 23.066406 -15.15625 23.515625 -13.304688 23.515625 -11.203125 C 23.515625 -10.828125 23.515625 -10.453125 23.515625 -10.078125 C 23.515625 -9.703125 23.488281 -9.328125 23.4375 -8.953125 Z M 17.28125 -13.078125 C 17.25 -13.609375 17.066406 -14.160156 16.734375 -14.734375 C 16.398438 -15.304688 15.90625 -15.789062 15.25 -16.1875 C 14.601562 -16.59375 13.757812 -16.796875 12.71875 -16.796875 C 11.78125 -16.796875 10.976562 -16.582031 10.3125 -16.15625 C 9.644531 -15.726562 9.125 -15.226562 8.75 -14.65625 C 8.382812 -14.082031 8.160156 -13.554688 8.078125 -13.078125 Z M 17.28125 -13.078125 "/></g></g></g><g fill="#ffffff" fill-opacity="1"><g transform="translate(233.208903, 202.499987)"><g><path d="M 8.875 0.40625 C 7.59375 0.40625 6.40625 0.148438 5.3125 -0.359375 C 4.226562 -0.867188 3.351562 -1.601562 2.6875 -2.5625 C 2.019531 -3.519531 1.6875 -4.648438 1.6875 -5.953125 L 1.6875 -6.046875 C 1.6875 -7.378906 1.972656 -8.460938 2.546875 -9.296875 C 3.117188 -10.140625 3.875 -10.804688 4.8125 -11.296875 C 5.757812 -11.796875 6.789062 -12.132812 7.90625 -12.3125 C 9.03125 -12.5 10.128906 -12.59375 11.203125 -12.59375 L 13.3125 -12.59375 C 13.90625 -12.59375 14.332031 -12.742188 14.59375 -13.046875 C 14.863281 -13.359375 15 -13.726562 15 -14.15625 C 15 -14.851562 14.71875 -15.46875 14.15625 -16 C 13.59375 -16.53125 12.726562 -16.796875 11.5625 -16.796875 C 10.4375 -16.796875 9.492188 -16.546875 8.734375 -16.046875 C 7.972656 -15.554688 7.328125 -14.847656 6.796875 -13.921875 L 2.046875 -16.765625 C 2.890625 -18.335938 4.125 -19.578125 5.75 -20.484375 C 7.382812 -21.390625 9.414062 -21.84375 11.84375 -21.84375 C 13.65625 -21.84375 15.257812 -21.523438 16.65625 -20.890625 C 18.0625 -20.265625 19.15625 -19.3125 19.9375 -18.03125 C 20.726562 -16.757812 21.125 -15.160156 21.125 -13.234375 L 21.125 0 L 15.359375 0 L 15.359375 -2.640625 L 15.28125 -2.6875 C 14.476562 -1.53125 13.503906 -0.722656 12.359375 -0.265625 C 11.210938 0.179688 10.050781 0.40625 8.875 0.40625 Z M 10.6875 -4.15625 C 12.070312 -4.15625 13.128906 -4.5625 13.859375 -5.375 C 14.585938 -6.1875 14.953125 -7.15625 14.953125 -8.28125 L 14.953125 -8.765625 L 11.203125 -8.765625 C 10.367188 -8.765625 9.617188 -8.566406 8.953125 -8.171875 C 8.285156 -7.785156 7.953125 -7.164062 7.953125 -6.3125 C 7.953125 -5.570312 8.21875 -5.023438 8.75 -4.671875 C 9.289062 -4.328125 9.9375 -4.15625 10.6875 -4.15625 Z M 10.6875 -4.15625 "/></g></g></g><g fill="#ffffff" fill-opacity="1"><g transform="translate(256.206542, 202.499987)"><g><path d="M 16.40625 -15.28125 C 15.925781 -15.363281 15.429688 -15.40625 14.921875 -15.40625 C 13.503906 -15.40625 12.367188 -15.117188 11.515625 -14.546875 C 10.660156 -13.972656 10.046875 -13.203125 9.671875 -12.234375 C 9.304688 -11.273438 9.125 -10.210938 9.125 -9.046875 L 9.125 0 L 2.875 0 L 2.875 -21.359375 L 9.078125 -21.359375 L 9.078125 -18.078125 L 9.125 -18.078125 C 9.550781 -19.015625 10.289062 -19.832031 11.34375 -20.53125 C 12.394531 -21.238281 13.664062 -21.59375 15.15625 -21.59375 C 15.664062 -21.59375 16.082031 -21.539062 16.40625 -21.4375 Z M 16.40625 -15.28125 "/></g></g></g><g fill="#ffffff" fill-opacity="1"><g transform="translate(272.404852, 202.499987)"><g><path d="M 16.6875 -11.84375 C 16.6875 -13.039062 16.382812 -14.03125 15.78125 -14.8125 C 15.175781 -15.601562 14.234375 -16 12.953125 -16 C 11.648438 -16 10.6875 -15.578125 10.0625 -14.734375 C 9.4375 -13.898438 9.125 -12.9375 9.125 -11.84375 L 9.125 0 L 2.875 0 L 2.875 -21.359375 L 9.078125 -21.359375 L 9.078125 -18.5625 L 9.125 -18.5625 C 9.519531 -19.28125 10.015625 -19.851562 10.609375 -20.28125 C 11.210938 -20.707031 11.820312 -21.023438 12.4375 -21.234375 C 13.050781 -21.453125 13.601562 -21.59375 14.09375 -21.65625 C 14.59375 -21.726562 14.945312 -21.765625 15.15625 -21.765625 C 16.96875 -21.765625 18.441406 -21.363281 19.578125 -20.5625 C 20.710938 -19.757812 21.546875 -18.710938 22.078125 -17.421875 C 22.609375 -16.128906 22.875 -14.75 22.875 -13.28125 L 22.875 0 L 16.6875 0 Z M 16.6875 -11.84375 "/></g></g></g></svg>